<svg xmlns="http://www.w3.org/2000/svg" version="1.1" xmlns:xlink="http://www.w3.org/1999/xlink" width="200" height="200"><svg xmlns="http://www.w3.org/2000/svg" version="1.1" xmlns:xlink="http://www.w3.org/1999/xlink" viewBox="0 0 200 200"><rect width="200" height="200" fill="url('#gradient')"></rect><defs><linearGradient id="SvgjsLinearGradient1006" gradientTransform="rotate(45 0.5 0.5)"><stop offset="0%" stop-color="#c7b3e6"></stop><stop offset="100%" stop-color="#6448d3"></stop></linearGradient></defs><g><g fill="#000000" transform="matrix(1.982427401340283,0,0,1.982427401340283,59.607065896435806,111.70943573066216)" stroke="#64637b" stroke-width="0.85"><path d="M13.13-7.47L13.13-6.82Q13.13-4.84 12.48-3.37Q11.83-1.90 10.67-1.02L10.67-1.02L12.97 0.80L10.85 2.60L7.79 0.14Q7.36 0.20 6.93 0.20L6.93 0.20Q5.12 0.20 3.71-0.64Q2.30-1.48 1.52-3.05Q0.73-4.61 0.70-6.64L0.70-6.64L0.70-7.39Q0.70-9.49 1.47-11.08Q2.24-12.68 3.66-13.54Q5.08-14.41 6.91-14.41L6.91-14.41Q8.72-14.41 10.14-13.55Q11.55-12.70 12.34-11.11Q13.13-9.52 13.13-7.47L13.13-7.47ZM9.65-6.76L9.65-7.41Q9.65-9.53 8.94-10.63Q8.23-11.73 6.91-11.73L6.91-11.73Q5.56-11.73 4.87-10.64Q4.19-9.56 4.18-7.47L4.18-7.47L4.18-6.82Q4.18-4.72 4.87-3.60Q5.57-2.48 6.93-2.48L6.93-2.48Q8.24-2.48 8.94-3.58Q9.64-4.69 9.65-6.76L9.65-6.76ZM22.61-14.22L26.04-14.22L26.04-4.91Q26.04-3.33 25.36-2.17Q24.69-1.02 23.43-0.41Q22.17 0.20 20.45 0.20L20.45 0.20Q17.85 0.20 16.36-1.15Q14.86-2.50 14.83-4.84L14.83-4.84L14.83-14.22L18.28-14.22L18.28-4.78Q18.34-2.44 20.45-2.44L20.45-2.44Q21.51-2.44 22.06-3.03Q22.61-3.61 22.61-4.93L22.61-4.93L22.61-14.22ZM40.05-14.22L40.05 0L36.64 0L31.60-8.85L31.60 0L28.17 0L28.17-14.22L31.60-14.22L36.63-5.37L36.63-14.22L40.05-14.22Z"></path></g></g></svg><style>@media (prefers-color-scheme: light) { :root { filter: none; } }
@media (prefers-color-scheme: dark) { :root { filter: none; } }
</style></svg>